<svg height='100px' width='100px'  fill="#FFFFFF" xmlns:x="http://ns.adobe.com/Extensibility/1.0/" xmlns:i="http://ns.adobe.com/AdobeIllustrator/10.0/" xmlns:graph="http://ns.adobe.com/Graphs/1.0/" xmlns="http://www.w3.org/2000/svg" xmlns:xlink="http://www.w3.org/1999/xlink" version="1.1" x="0px" y="0px" viewBox="0 0 64 64" enable-background="new 0 0 64 64" xml:space="preserve"><metadata><sfw xmlns="http://ns.adobe.com/SaveForWeb/1.0/"><slices></slices><sliceSourceBounds y="-8160" x="-8165" width="16389" height="16384" bottomLeftOrigin="true"></sliceSourceBounds></sfw></metadata><g><path d="M56,6H8C6.896,6,6,6.896,6,8v48c0,1.104,0.896,2,2,2h48c1.104,0,2-0.896,2-2V8C58,6.896,57.104,6,56,6z M50,50   c1.104,0,2,0.896,2,2s-0.896,2-2,2h-8c-1.104,0-2-0.896-2-2s0.896-2,2-2h2V34H20v16h2c1.104,0,2,0.896,2,2s-0.896,2-2,2h-8   c-1.104,0-2-0.896-2-2s0.896-2,2-2h2V14h-2c-1.104,0-2-0.896-2-2s0.896-2,2-2h8c1.104,0,2,0.896,2,2s-0.896,2-2,2h-2v16h24V14h-2   c-1.104,0-2-0.896-2-2s0.896-2,2-2h8c1.104,0,2,0.896,2,2s-0.896,2-2,2h-2v36H50z"></path></g></svg>